<svg xmlns="http://www.w3.org/2000/svg" width="352" height="488" viewBox="0 0 352 488">
<g>
<path d="M 187.41 464.25 C181.58,471.64 179.15,474.00 177.37,474.00 C175.57,474.00 172.81,471.25 165.59,462.25 C145.22,436.85 138.16,428.10 129.99,418.12 C118.82,404.46 109.16,392.02 103.48,384.00 C100.95,380.42 94.84,371.88 89.89,365.00 C73.47,342.17 60.30,321.69 47.77,299.50 C36.03,278.72 24.33,251.92 21.14,238.50 C20.61,236.30 19.22,230.90 18.03,226.50 C15.53,217.23 13.08,198.58 13.03,188.54 C13.00,180.65 15.51,158.52 17.12,152.50 C20.87,138.53 23.11,132.30 29.08,119.31 C40.45,94.59 63.20,68.92 88.00,52.81 C102.83,43.18 127.27,33.23 141.50,31.02 C153.97,29.09 173.28,27.89 182.50,28.48 C216.16,30.62 249.03,43.60 276.50,65.58 C286.45,73.54 289.12,76.23 297.21,86.50 C332.78,131.63 343.24,175.29 330.99,227.50 C329.58,233.50 324.81,248.03 321.31,257.00 C315.45,272.03 292.75,315.54 282.98,330.50 C281.54,332.70 277.55,339.00 274.11,344.50 C270.68,350.00 265.62,357.65 262.88,361.50 C260.14,365.35 256.66,370.30 255.14,372.50 C247.01,384.29 242.22,391.05 238.57,395.90 C228.87,408.77 225.84,412.82 222.04,418.00 C219.82,421.02 215.53,426.88 212.49,431.00 C209.46,435.12 206.22,439.62 205.29,441.00 C203.34,443.89 198.24,450.52 187.41,464.25 ZM 175.75 469.61 C177.23,471.09 177.47,471.08 178.68,469.42 C179.41,468.43 180.00,467.03 180.00,466.31 C180.00,465.59 180.64,465.00 181.43,465.00 C182.22,465.00 183.89,463.54 185.14,461.75 C186.39,459.96 189.91,455.49 192.96,451.82 C196.01,448.14 200.52,442.41 203.00,439.07 C205.48,435.73 208.20,432.13 209.06,431.06 C209.92,430.00 211.50,427.93 212.56,426.46 C213.63,424.99 217.12,420.36 220.33,416.16 C223.53,411.96 228.17,405.60 230.64,402.02 C236.03,394.18 239.25,389.68 242.00,386.14 C244.36,383.11 257.61,364.32 263.51,355.63 C274.45,339.53 277.00,335.71 277.00,335.42 C277.00,335.24 278.31,333.17 279.90,330.80 C289.76,316.19 314.90,266.25 318.56,254.00 C326.50,227.42 330.95,204.98 330.97,191.50 C330.99,179.72 326.58,151.75 323.93,146.76 C323.42,145.81 323.00,144.33 323.00,143.48 C323.00,142.16 320.11,134.44 317.02,127.50 C316.53,126.40 315.21,123.33 314.09,120.69 C312.97,118.04 310.65,113.79 308.93,111.24 C307.21,108.69 305.40,105.68 304.90,104.55 C300.64,94.82 274.21,65.99 263.74,59.66 C261.78,58.47 257.10,55.63 253.34,53.35 C234.00,41.62 216.03,35.04 193.76,31.53 C158.85,26.03 116.62,35.58 86.06,55.88 C70.31,66.34 52.83,83.90 42.62,99.49 C34.39,112.08 34.35,112.14 28.99,125.16 C17.74,152.46 16.48,158.76 16.55,187.50 C16.62,213.18 17.35,217.84 26.30,249.60 C29.04,259.32 47.63,296.44 59.70,316.29 C67.75,329.53 83.62,353.87 84.94,355.00 C85.26,355.27 86.74,357.30 88.22,359.50 C89.71,361.70 92.37,365.52 94.15,368.00 C95.92,370.48 98.75,374.54 100.43,377.04 C102.12,379.54 110.47,390.45 119.00,401.28 C127.53,412.11 138.10,425.61 142.50,431.29 C146.90,436.96 153.72,445.25 157.65,449.70 C161.59,454.15 166.52,460.09 168.62,462.90 C170.71,465.70 172.81,468.00 173.28,468.00 C173.76,468.00 174.87,468.72 175.75,469.61 ZM 188.28 381.83 C180.46,387.42 173.94,391.99 173.78,391.98 C173.15,391.94 160.77,384.30 156.78,381.50 C127.30,360.79 116.43,351.56 89.65,324.52 C67.86,302.52 55.40,285.87 48.09,269.00 C43.82,259.15 43.22,257.55 42.49,254.09 C42.09,252.21 40.49,247.49 38.92,243.59 C31.44,224.94 27.44,195.41 29.85,176.50 C31.01,167.39 33.73,153.47 34.94,150.50 C35.38,149.40 37.83,143.10 40.38,136.50 C46.17,121.51 55.32,105.78 65.25,93.71 C73.67,83.47 77.33,79.88 87.00,72.33 C94.06,66.83 117.51,53.00 119.79,53.00 C120.57,53.00 122.62,52.37 124.35,51.61 C132.93,47.81 139.46,46.37 164.00,42.87 C184.65,39.93 214.17,46.28 238.32,58.86 C256.48,68.31 269.19,78.76 281.69,94.50 C300.38,118.05 308.63,134.79 314.69,161.50 C316.14,167.91 316.50,173.77 316.48,191.00 C316.45,213.48 315.94,217.41 310.79,234.50 C304.01,257.00 288.97,286.44 278.74,297.24 C274.18,302.05 267.08,310.58 263.62,315.41 C257.08,324.52 218.77,359.86 205.59,368.94 C204.44,369.74 203.27,370.67 203.00,371.02 C202.73,371.37 196.10,376.23 188.28,381.83 ZM 177.69 453.93 C178.36,456.47 177.95,456.49 176.00,454.04 C175.18,453.00 170.91,447.95 166.52,442.82 C162.14,437.70 157.78,432.60 156.85,431.50 C149.84,423.26 124.02,391.19 119.80,385.49 C111.05,373.66 100.17,358.59 96.00,352.52 C93.53,348.91 89.89,343.83 87.92,341.23 C85.01,337.38 77.27,325.24 64.30,304.19 C63.51,302.92 63.01,301.47 63.19,300.96 C63.36,300.46 65.07,302.52 67.00,305.53 C71.91,313.22 86.08,332.43 87.13,332.84 C87.62,333.02 87.70,333.69 87.31,334.34 C86.88,335.06 87.22,335.01 88.21,334.21 C89.51,333.15 89.89,333.15 90.27,334.21 C90.52,334.92 91.03,335.22 91.40,334.88 C91.76,334.54 90.48,332.36 88.53,330.04 C81.49,321.61 84.44,323.89 99.47,338.50 C100.60,339.60 103.42,341.79 105.74,343.37 C108.05,344.94 112.09,348.54 114.71,351.37 C117.33,354.19 123.30,359.57 127.99,363.33 C132.67,367.08 137.89,371.36 139.60,372.83 C141.30,374.30 143.32,375.65 144.09,375.83 C144.85,376.01 145.71,376.47 145.99,376.85 C146.27,377.22 148.00,378.76 149.83,380.27 C151.66,381.77 152.86,383.00 152.51,383.00 C150.49,383.00 155.35,386.02 158.92,386.98 C161.94,387.79 163.67,389.02 165.04,391.31 C166.09,393.06 168.51,395.55 170.42,396.84 L 173.88 399.18 L 178.69 395.90 C181.34,394.10 188.45,388.53 194.50,383.53 C200.55,378.54 207.24,373.11 209.37,371.47 C218.40,364.54 220.17,363.14 229.11,355.81 C245.69,342.25 278.12,309.24 282.00,302.00 C282.64,300.81 283.41,300.07 283.70,300.37 C284.54,301.21 279.54,309.17 276.07,312.50 C274.35,314.15 272.43,316.40 271.81,317.50 C270.76,319.35 270.81,319.39 272.50,318.00 C274.53,316.33 274.37,316.94 271.48,321.86 C268.22,327.40 246.92,359.36 245.18,361.32 C244.29,362.32 242.65,364.63 241.53,366.45 C239.68,369.47 234.74,376.29 231.71,380.00 C231.03,380.83 225.91,387.58 220.31,395.00 C214.72,402.42 207.36,412.10 203.96,416.50 C183.03,443.57 177.17,451.92 177.69,453.93 ZM 103.00 304.93 C103.00,307.37 104.27,307.59 106.36,305.50 C107.18,304.67 108.56,304.00 109.43,304.00 C110.44,304.00 111.00,303.10 111.00,301.47 C111.00,299.82 111.72,298.67 113.08,298.17 C116.18,297.02 125.88,285.08 127.01,281.03 C129.25,272.97 127.56,264.21 122.83,259.33 C116.73,253.03 111.79,251.00 102.58,251.00 C94.45,251.00 94.39,251.02 90.76,254.75 C88.75,256.81 86.19,260.52 85.08,263.00 C82.91,267.79 82.26,277.43 84.03,278.52 C84.62,278.89 84.79,280.59 84.43,282.53 C83.85,285.61 84.32,286.51 89.57,292.46 C94.09,297.57 95.97,299.00 98.14,299.00 C101.11,299.00 103.00,301.31 103.00,304.93 ZM 150.16 328.23 C161.48,329.17 201.00,328.72 202.48,327.64 C203.84,326.64 202.73,323.90 193.90,306.50 C188.33,295.50 183.21,285.83 182.52,285.00 C181.83,284.17 180.48,281.37 179.51,278.76 C177.95,274.59 175.37,270.99 174.73,272.11 C173.68,273.93 169.33,282.06 161.95,296.00 C157.14,305.08 151.80,314.95 150.08,317.94 C148.35,320.94 146.69,324.40 146.38,325.63 C145.87,327.66 146.22,327.91 150.16,328.23 ZM 58.26 220.09 C60.59,221.57 63.40,222.75 64.50,222.71 C67.79,222.59 71.88,219.25 71.32,217.13 C70.80,215.12 76.30,208.00 78.38,208.00 C79.03,208.00 80.07,209.35 80.69,211.00 C81.32,212.66 82.56,214.00 83.47,214.00 C85.74,214.00 92.91,208.08 94.60,204.80 C96.09,201.92 96.50,197.00 95.24,197.00 C94.30,197.00 91.68,191.26 91.25,188.25 C91.04,186.79 91.45,186.00 92.40,186.00 C94.03,186.00 95.48,182.58 94.51,181.01 C94.16,180.45 92.45,179.99 90.69,179.99 C88.91,179.98 84.41,178.29 80.50,176.16 C72.42,171.76 69.46,171.90 65.11,176.91 C63.51,178.76 61.34,180.03 59.51,180.21 C56.43,180.51 54.41,184.00 57.32,184.00 C58.12,184.00 59.84,184.87 61.14,185.93 C63.18,187.61 63.33,188.15 62.25,189.92 C61.56,191.05 61.00,193.53 61.00,195.44 C61.00,197.35 60.48,200.04 59.85,201.43 C58.80,203.72 59.07,204.31 62.91,208.03 C67.44,212.43 67.76,214.42 64.30,216.72 C62.22,218.10 62.02,217.99 60.60,214.59 C59.78,212.61 58.55,211.00 57.88,211.00 C55.27,211.00 53.00,207.68 53.00,203.85 C53.00,201.25 52.55,200.00 51.62,200.00 C49.04,200.00 47.78,202.75 48.48,206.87 C49.33,211.89 52.87,216.69 58.26,220.09 ZM 174.50 214.89 C183.14,219.48 201.05,215.71 208.84,207.66 C210.52,205.92 213.15,201.80 214.68,198.50 C217.20,193.07 217.47,191.43 217.48,181.30 C217.49,173.65 217.10,169.70 216.25,168.85 C215.56,168.16 215.00,166.81 215.00,165.83 C215.00,164.86 213.76,162.75 212.25,161.14 C208.45,157.09 206.00,153.77 206.00,152.68 C206.00,149.44 192.17,137.76 186.19,135.94 C173.04,131.94 168.76,131.06 162.50,131.07 C154.67,131.07 142.89,133.82 142.23,135.80 C141.93,136.72 142.51,136.91 144.25,136.47 C147.94,135.55 168.18,137.69 174.21,139.65 C185.37,143.26 192.39,148.07 199.32,156.84 C207.06,166.65 208.22,169.76 208.74,182.00 C209.17,192.12 209.08,192.70 206.24,198.00 C201.22,207.35 190.62,213.15 181.62,211.46 C179.86,211.13 176.68,209.39 174.54,207.59 C170.94,204.57 170.62,203.87 170.21,198.17 C169.96,194.77 169.61,192.00 169.43,192.00 C167.66,192.00 164.00,194.67 164.00,195.96 C164.00,196.86 163.49,198.11 162.87,198.73 C159.98,201.62 166.45,210.61 174.50,214.89 ZM 197.00 323.62 C197.00,324.75 193.03,325.00 175.06,325.00 C162.99,325.00 152.87,324.60 152.57,324.11 C152.26,323.62 154.11,319.45 156.67,314.86 C159.23,310.26 163.08,303.35 165.23,299.50 C167.39,295.65 170.34,289.91 171.81,286.75 C173.28,283.58 174.78,281.11 175.15,281.25 C175.99,281.56 194.00,317.40 194.00,318.76 C194.00,319.31 194.68,320.32 195.50,321.00 C196.32,321.68 197.00,322.86 197.00,323.62 ZM 132.38 240.71 C136.29,243.57 140.18,245.91 141.00,245.90 C141.89,245.89 141.27,244.99 139.50,243.69 C133.38,239.22 127.78,232.38 124.22,225.05 C120.70,217.78 120.56,217.09 120.53,206.50 C120.50,195.13 121.65,190.39 126.92,180.20 C132.52,169.37 149.81,159.33 166.15,157.41 C170.63,156.89 172.95,157.25 178.98,159.43 C187.47,162.49 189.55,162.30 187.88,158.64 C187.14,157.02 184.54,155.25 180.14,153.35 C174.15,150.78 172.43,150.50 162.50,150.54 C151.84,150.58 151.26,150.70 143.59,154.41 C131.47,160.26 123.46,169.15 116.01,185.00 C112.03,193.48 112.19,211.97 116.32,220.84 C120.48,229.77 124.91,235.25 132.38,240.71 ZM 277.33 221.81 C278.13,222.85 278.83,222.62 280.74,220.71 L 283.14 218.31 L 281.02 214.54 C278.82,210.61 279.17,208.15 281.49,211.31 C282.32,212.45 283.05,212.73 283.46,212.06 C284.43,210.49 288.57,210.77 290.00,212.50 C291.94,214.84 293.11,214.27 292.37,211.34 C291.81,209.12 291.98,208.78 293.35,209.34 C294.26,209.70 295.72,210.29 296.60,210.65 C298.98,211.61 298.00,207.99 295.50,206.61 C294.41,206.00 291.80,204.21 289.71,202.63 C286.02,199.84 285.96,199.71 287.92,198.35 C289.53,197.22 290.31,197.18 291.88,198.16 C293.27,199.02 294.49,199.09 296.09,198.37 C298.26,197.40 298.10,197.12 291.68,190.57 C285.39,184.16 285.05,183.56 285.59,180.13 C286.04,177.32 285.68,175.87 284.02,173.75 C280.59,169.40 277.51,170.08 271.21,176.57 C265.56,182.41 264.90,184.93 270.01,181.15 L 273.00 178.94 L 273.00 181.70 C273.00,184.66 268.03,189.93 260.56,194.88 C257.00,197.24 256.84,197.53 258.87,197.83 C260.10,198.01 262.17,197.46 263.47,196.61 C265.54,195.25 265.96,195.25 267.05,196.56 C267.73,197.38 269.08,197.79 270.06,197.48 C271.03,197.17 272.10,197.35 272.43,197.88 C273.07,198.92 270.45,202.00 268.91,202.00 C268.39,202.00 265.85,204.06 263.25,206.58 L 258.54 211.17 L 264.02 211.00 C267.03,210.91 270.02,210.87 270.66,210.91 C271.30,210.96 272.83,213.14 274.07,215.75 C275.30,218.36 276.77,221.09 277.33,221.81 ZM 174.00 251.37 C175.38,251.63 181.36,251.73 187.29,251.60 C196.16,251.39 198.39,251.03 199.79,249.55 C201.42,247.84 201.37,247.78 198.73,248.40 C193.88,249.53 179.23,247.13 172.63,244.11 C157.87,237.38 147.94,222.56 147.17,206.17 C146.71,196.23 148.29,191.20 153.57,185.77 C157.65,181.57 166.15,178.00 172.08,178.00 C177.23,178.00 183.71,181.32 185.83,185.06 C187.79,188.50 189.50,188.80 191.03,185.95 C193.06,182.16 188.52,176.78 180.00,172.89 C178.62,172.26 174.57,171.69 171.00,171.62 C165.60,171.52 163.40,172.03 158.00,174.65 C146.22,180.37 140.89,188.56 140.21,202.01 C139.84,209.37 140.15,211.60 142.52,218.51 C148.38,235.58 161.14,248.90 174.00,251.37 ZM 165.50 115.34 C168.25,116.75 170.84,117.93 171.26,117.95 C171.69,117.98 172.90,116.57 173.97,114.81 L 175.91 111.62 L 176.93 114.31 C177.78,116.56 178.55,117.00 181.67,117.00 C187.71,117.00 195.34,110.63 198.78,102.70 C200.52,98.71 200.41,86.00 198.64,86.00 C196.55,86.00 188.73,92.34 183.59,98.21 C179.29,103.11 178.91,103.34 178.36,101.25 C178.01,99.92 176.99,99.00 175.88,99.00 C173.57,99.00 173.48,99.90 175.63,101.48 C177.12,102.56 177.05,102.87 174.95,104.84 C171.79,107.77 170.94,107.56 171.65,104.00 C171.98,102.35 171.82,101.00 171.31,101.00 C170.79,101.00 168.82,99.60 166.93,97.89 C162.21,93.61 157.03,90.35 153.75,89.59 C151.01,88.96 151.00,88.98 151.00,94.45 C151.00,103.62 155.63,110.28 165.50,115.34 ZM 188.50 234.41 C189.60,234.67 194.55,234.76 199.50,234.59 C207.33,234.33 209.39,233.85 215.34,230.94 C232.22,222.68 242.24,201.84 239.03,181.65 C236.45,165.42 235.68,165.74 233.24,184.02 C230.63,203.59 228.75,208.14 219.44,217.45 C211.29,225.60 205.00,228.22 193.48,228.27 C187.40,228.29 184.29,227.78 180.61,226.15 C175.49,223.89 172.61,223.40 173.17,224.89 C173.79,226.56 182.20,233.01 184.35,233.47 C185.53,233.72 187.40,234.14 188.50,234.41 ZM 247.99 136.07 C257.41,138.93 266.55,134.46 264.50,128.00 C263.94,126.24 263.24,126.06 258.68,126.53 C254.15,126.99 253.00,126.71 249.50,124.25 C244.25,120.57 242.00,115.94 242.00,108.78 C242.00,103.86 242.41,102.60 245.00,99.66 C246.64,97.78 249.34,95.69 251.00,95.00 C252.65,94.32 254.00,93.45 254.00,93.08 C254.00,91.30 251.21,90.00 247.41,90.00 C243.56,90.00 242.75,90.50 237.61,96.06 C234.52,99.39 232.00,102.54 232.00,103.06 C232.00,103.58 232.02,104.24 232.04,104.54 C232.06,104.83 231.38,105.76 230.54,106.61 C229.68,107.46 229.00,109.87 229.00,112.05 C229.00,122.29 237.33,132.82 247.99,136.07 ZM 104.27 136.76 C105.75,138.64 108.00,136.37 108.00,133.00 C108.00,131.48 108.68,129.68 109.50,129.00 C110.32,128.32 111.00,126.91 111.00,125.88 C111.00,124.84 110.32,124.00 109.50,124.00 C108.68,124.00 108.00,123.55 108.00,123.00 C108.00,122.45 108.46,122.00 109.01,122.00 C110.96,122.00 113.99,115.52 114.00,111.36 C114.00,105.52 111.70,103.14 105.00,102.05 C100.45,101.31 99.29,101.42 98.28,102.73 C97.18,104.14 96.98,104.11 96.38,102.40 C94.61,97.46 90.47,95.52 88.01,98.49 C87.01,99.70 87.18,100.84 88.89,104.48 C90.05,106.95 91.00,110.08 91.00,111.42 C91.00,112.77 92.09,116.02 93.43,118.65 C95.76,123.26 95.95,125.70 93.87,124.42 C93.32,124.08 92.00,124.59 90.94,125.56 C88.98,127.32 88.54,130.96 89.86,134.32 C90.47,135.88 90.92,135.61 93.04,132.40 C96.53,127.10 98.56,126.04 100.47,128.52 C101.30,129.61 102.28,131.62 102.63,133.00 C102.99,134.38 103.72,136.07 104.27,136.76 ZM 169.98 93.80 C172.93,97.74 175.83,97.53 180.36,93.06 C184.10,89.37 184.91,83.07 182.51,76.35 C179.98,69.26 176.62,62.00 175.88,62.00 C174.87,62.00 172.67,65.94 170.06,72.41 C166.68,80.78 166.65,89.37 169.98,93.80 ZM 246.48 299.62 C247.34,300.93 248.15,302.00 248.27,302.00 C248.40,302.00 248.57,291.09 248.65,277.75 C248.77,257.90 249.05,253.45 250.19,253.22 C251.83,252.88 254.20,247.24 253.01,246.51 C251.35,245.48 243.11,247.28 242.52,248.80 C242.20,249.65 242.35,250.60 242.87,250.92 C244.15,251.72 244.80,261.49 244.87,280.87 C244.91,293.95 245.23,297.71 246.48,299.62 ZM 255.63 288.29 C257.08,289.75 264.00,284.37 264.00,281.78 C264.00,280.91 259.42,281.49 258.77,282.44 C258.32,283.08 258.02,282.84 258.02,281.82 C257.99,279.03 260.99,276.78 263.79,277.48 C266.28,278.11 266.29,278.10 265.64,272.62 C264.42,262.20 261.67,258.77 257.97,263.03 C255.61,265.76 255.55,266.38 257.50,268.00 C259.24,269.44 259.53,274.00 257.89,274.00 C257.28,274.00 257.03,274.63 257.32,275.40 C257.62,276.17 257.23,277.64 256.46,278.65 C255.05,280.52 254.47,287.14 255.63,288.29 ZM 94.00 285.00 C94.00,286.92 91.04,285.98 89.45,283.57 C87.61,280.76 88.04,270.21 90.04,268.98 C93.07,267.10 100.00,272.27 100.00,276.41 C100.00,280.18 97.91,284.00 95.84,284.00 C94.83,284.00 94.00,284.45 94.00,285.00 ZM 117.30 285.08 C112.22,287.01 110.00,285.46 110.00,280.02 C110.00,276.31 113.22,272.27 115.75,272.82 C116.57,272.99 117.00,271.83 117.00,269.39 C117.00,265.82 117.07,265.75 118.90,267.41 C122.98,271.10 121.88,283.34 117.30,285.08 ZM 234.59 276.53 C235.61,278.44 236.82,280.00 237.26,280.00 C238.67,280.00 239.31,276.91 238.13,275.73 C237.51,275.11 236.99,273.23 236.97,271.55 C236.95,269.87 236.28,267.63 235.47,266.56 C234.66,265.49 234.00,263.16 234.00,261.37 C234.00,257.35 232.49,256.22 230.95,259.10 C230.10,260.69 230.08,261.89 230.90,263.67 C231.50,265.00 231.97,267.09 231.94,268.30 L 231.87 270.50 L 230.97 268.25 C229.79,265.31 228.59,265.40 227.16,268.55 C225.46,272.28 225.74,275.45 227.94,277.44 C230.21,279.50 232.39,278.59 231.68,275.89 C230.81,272.54 232.66,272.95 234.59,276.53 ZM 174.77 314.56 C177.50,315.97 180.35,315.68 182.79,313.72 C183.69,313.00 183.77,312.37 183.04,311.64 C182.47,311.07 182.00,309.79 182.00,308.80 C182.00,305.96 176.18,306.33 175.11,309.23 L 174.28 311.47 L 173.60 309.33 C172.80,306.79 170.99,305.93 168.06,306.70 C166.06,307.22 163.00,311.60 163.00,313.95 C163.00,315.25 170.66,315.35 171.46,314.07 C171.79,313.53 173.18,313.73 174.77,314.56 ZM 213.65 78.17 C217.02,81.88 224.00,79.17 224.00,74.14 C224.00,70.60 222.33,69.00 218.63,69.00 C212.96,69.00 210.11,74.26 213.65,78.17 ZM 173.81 353.92 C177.17,355.65 177.66,355.68 179.25,354.26 C181.37,352.36 181.53,348.68 179.56,347.05 C178.77,346.39 177.98,344.68 177.81,343.25 C177.64,341.82 176.90,340.46 176.17,340.22 C175.32,339.94 174.94,340.46 175.13,341.64 C175.30,342.70 174.01,344.89 172.15,346.74 C168.43,350.41 168.63,351.24 173.81,353.92 ZM 123.75 119.28 C128.61,120.02 128.87,120.01 129.42,119.13 C129.72,118.65 131.32,117.99 132.98,117.65 C134.68,117.31 136.00,116.41 136.00,115.60 C136.00,114.80 136.79,113.94 137.75,113.69 C138.71,113.44 137.61,113.18 135.31,113.12 C133.00,113.05 130.84,112.55 130.50,112.00 C129.31,110.08 126.16,111.03 123.59,114.08 C120.32,117.97 120.34,118.77 123.75,119.28 ZM 115.78 114.75 C116.74,117.53 120.00,114.82 120.00,111.25 C120.00,108.51 122.64,103.00 123.96,103.00 C125.46,103.00 126.29,98.89 125.03,97.65 C123.91,96.55 122.68,97.63 116.76,104.92 C115.60,106.35 114.99,112.46 115.78,114.75 ZM 84.00 192.50 C84.00,193.33 83.11,194.00 82.00,194.00 C80.27,194.00 80.00,193.33 80.00,189.00 L 80.00 184.00 L 83.96 184.00 C86.96,184.00 88.20,184.51 89.04,186.08 C90.58,188.96 89.54,191.00 86.53,191.00 C84.95,191.00 84.00,191.56 84.00,192.50 ZM 132.61 77.71 C136.84,80.80 141.00,77.11 139.59,71.52 C139.01,69.18 138.51,68.92 135.22,69.19 C131.78,69.48 131.48,69.76 131.17,72.96 C130.94,75.38 131.37,76.80 132.61,77.71 ZM 88.96 203.55 C87.35,205.49 81.11,205.45 80.36,203.50 C79.53,201.33 80.54,199.35 83.45,197.44 C85.48,196.11 86.31,196.01 87.47,196.97 C89.62,198.76 90.33,201.90 88.96,203.55 ZM 102.56 97.78 C104.53,100.60 104.95,100.57 107.70,97.37 C109.88,94.83 109.90,94.63 108.26,91.87 C106.31,88.57 105.37,88.36 102.83,90.65 C100.59,92.68 100.51,94.85 102.56,97.78 ZM 80.65 118.17 C82.75,120.48 83.90,120.43 86.95,117.89 C88.84,116.32 89.17,115.49 88.38,114.24 C86.53,111.31 84.35,110.52 81.58,111.78 C78.62,113.13 78.27,115.54 80.65,118.17 ZM 72.96 189.60 C72.46,190.92 71.32,192.00 70.42,192.00 C69.35,192.00 68.99,191.46 69.38,190.45 C69.71,189.59 69.28,187.82 68.42,186.51 C67.21,184.67 67.11,183.67 67.96,182.07 C68.57,180.93 69.65,180.00 70.37,180.00 C72.26,180.00 74.07,186.68 72.96,189.60 ZM 62.98 149.47 C65.72,152.77 70.46,150.24 69.83,145.81 C69.33,142.30 64.41,142.02 62.86,145.40 C61.97,147.37 61.99,148.29 62.98,149.47 ZM 73.82 204.74 C73.54,207.14 73.01,207.54 69.75,207.81 C66.17,208.11 66.00,207.98 66.00,205.08 C66.00,202.67 66.52,201.91 68.50,201.41 C72.36,200.44 74.18,201.59 73.82,204.74 ZM 115.65 129.17 C116.57,130.18 117.59,131.00 117.93,131.00 C118.44,131.00 122.25,128.66 123.93,127.32 C125.01,126.45 120.16,124.06 117.25,124.03 C113.54,124.00 112.89,126.11 115.65,129.17 ZM 224.67 324.55 C228.44,327.41 230.82,325.41 229.57,320.43 C229.05,318.36 228.42,317.93 226.22,318.19 C222.84,318.58 221.90,322.45 224.67,324.55 ZM 239.61 296.42 C240.68,299.21 242.00,298.11 242.00,294.43 C242.00,291.50 240.88,287.86 239.45,286.17 C238.96,285.59 235.00,288.04 235.00,288.92 C235.00,289.39 235.90,290.00 237.00,290.29 C238.16,290.59 239.00,291.65 239.00,292.82 C239.00,293.93 239.27,295.55 239.61,296.42 ZM 282.66 151.18 C285.03,153.80 287.43,153.07 287.83,149.62 C288.23,146.14 286.88,144.59 284.19,145.44 C281.35,146.34 280.65,148.96 282.66,151.18 ZM 230.10 285.31 C230.80,286.85 231.97,287.67 233.35,287.59 C235.12,287.49 235.44,286.94 235.18,284.48 C234.82,281.09 233.02,278.77 232.29,280.75 C232.04,281.44 231.20,282.00 230.42,282.00 C228.71,282.00 228.69,282.23 230.10,285.31 ZM 250.14 296.85 C251.40,298.87 251.52,298.78 253.17,294.73 C254.12,292.40 254.91,289.94 254.94,289.25 C255.05,286.77 252.42,288.07 250.64,291.37 C249.09,294.24 249.02,295.06 250.14,296.85 ZM 123.00 322.50 C123.00,326.50 124.71,327.09 127.47,324.04 C129.75,321.52 128.78,319.00 125.53,319.00 C123.31,319.00 123.00,319.42 123.00,322.50 ZM 286.06 250.06 C287.81,251.81 288.40,251.97 289.10,250.87 C289.58,250.12 289.98,248.46 289.98,247.18 C290.00,245.26 289.55,244.92 287.33,245.18 C283.82,245.60 283.36,247.36 286.06,250.06 ZM 65.38 246.55 C66.13,248.49 67.35,248.38 69.35,246.17 C71.17,244.16 70.63,243.00 67.89,243.00 C65.74,243.00 64.62,244.58 65.38,246.55 ZM 116.00 266.44 C116.00,266.68 114.65,268.35 113.00,270.16 C109.81,273.65 108.75,272.23 111.56,268.22 C112.88,266.33 116.00,265.08 116.00,266.44 ZM 78.02 179.53 C79.18,181.71 79.15,182.28 77.80,183.63 C76.37,185.06 76.19,184.83 75.84,181.10 C75.39,176.40 76.08,175.90 78.02,179.53 ZM 252.40 261.50 C251.74,264.22 251.83,264.37 253.33,263.13 C254.25,262.37 255.00,260.60 255.00,259.18 C255.00,255.95 253.42,257.36 252.40,261.50 ZM 103.77 292.19 C103.15,294.04 101.00,294.35 101.00,292.58 C101.00,291.71 101.71,291.00 102.58,291.00 C103.45,291.00 103.99,291.53 103.77,292.19 Z" fill="rgb(17,24,28)"/>
<path d="M 188.28 381.83 C196.10,376.23 202.73,371.37 203.00,371.02 C203.27,370.67 204.44,369.74 205.59,368.94 C218.77,359.86 257.08,324.52 263.62,315.41 C267.08,310.58 274.18,302.05 278.74,297.24 C288.97,286.44 304.01,257.00 310.79,234.50 C315.94,217.41 316.45,213.48 316.48,191.00 C316.50,173.77 316.14,167.91 314.69,161.50 C308.63,134.79 300.38,118.05 281.69,94.50 C276.55,88.02 271.37,82.44 265.79,77.46 C271.00,81.77 276.18,86.52 281.39,91.72 C281.75,92.08 281.92,91.32 281.77,90.04 C281.56,88.19 282.13,87.52 284.50,86.85 C286.15,86.39 288.09,86.23 288.82,86.50 C292.52,87.88 285.45,79.28 277.46,71.30 C288.86,82.50 302.00,97.94 304.90,104.55 C305.40,105.68 307.21,108.69 308.93,111.24 C310.65,113.79 312.97,118.04 314.09,120.69 C315.21,123.33 316.53,126.40 317.02,127.50 C320.11,134.44 323.00,142.16 323.00,143.48 C323.00,144.33 323.42,145.81 323.93,146.76 C326.58,151.75 330.99,179.72 330.97,191.50 C330.95,204.98 326.50,227.42 318.56,254.00 C314.90,266.25 289.76,316.19 279.90,330.80 C278.31,333.17 277.00,335.24 277.00,335.42 C277.00,335.71 274.45,339.53 263.51,355.63 C257.61,364.32 244.36,383.11 242.00,386.14 C239.25,389.68 236.03,394.18 230.64,402.02 C228.17,405.60 223.53,411.96 220.33,416.16 C217.12,420.36 213.63,424.99 212.56,426.46 C211.50,427.93 209.92,430.00 209.06,431.06 C208.20,432.13 205.48,435.73 203.00,439.07 C200.52,442.41 196.01,448.14 192.96,451.82 C189.91,455.49 186.39,459.96 185.14,461.75 C183.89,463.54 182.22,465.00 181.43,465.00 C180.64,465.00 180.00,465.59 180.00,466.31 C180.00,467.03 179.41,468.43 178.68,469.42 C179.41,468.43 180.00,466.11 180.00,464.27 C180.00,462.09 178.67,458.20 177.23,455.46 C178.09,456.30 178.18,455.80 177.69,453.93 C177.17,451.92 183.03,443.57 203.96,416.50 C207.36,412.10 214.72,402.42 220.31,395.00 C225.91,387.58 231.03,380.83 231.71,380.00 C234.74,376.29 239.68,369.47 241.53,366.45 C242.65,364.63 244.29,362.32 245.18,361.32 C246.92,359.36 268.22,327.40 271.48,321.86 C274.37,316.94 274.53,316.33 272.50,318.00 C270.81,319.39 270.76,319.35 271.81,317.50 C272.43,316.40 274.35,314.15 276.07,312.50 C279.54,309.17 284.54,301.21 283.70,300.37 C283.41,300.07 282.64,300.81 282.00,302.00 C278.12,309.24 245.69,342.25 229.11,355.81 C220.17,363.14 218.40,364.54 209.37,371.47 C207.24,373.11 200.55,378.54 194.50,383.53 C188.45,388.53 181.34,394.10 178.69,395.90 L 173.88 399.18 L 170.42 396.84 C168.51,395.55 166.09,393.06 165.04,391.31 C163.67,389.02 161.94,387.79 158.92,386.98 C155.35,386.02 150.49,383.00 152.51,383.00 C152.86,383.00 151.66,381.77 149.83,380.27 C148.00,378.76 146.27,377.22 145.99,376.85 C145.71,376.47 144.85,376.01 144.09,375.83 C143.32,375.65 141.30,374.30 139.60,372.83 C137.89,371.36 132.67,367.08 127.99,363.33 C123.30,359.57 117.33,354.19 114.71,351.37 C113.19,349.74 111.21,347.84 109.35,346.23 C110.54,347.24 111.79,348.31 112.93,349.35 C126.60,361.70 129.62,363.22 117.00,351.40 C103.53,338.77 92.34,327.70 83.08,317.75 C85.17,319.95 87.36,322.21 89.65,324.52 C116.43,351.56 127.30,360.79 156.78,381.50 C160.77,384.30 173.15,391.94 173.78,391.98 C173.94,391.99 180.46,387.42 188.28,381.83 ZM 277.33 221.81 C276.77,221.09 275.30,218.36 274.07,215.75 C272.83,213.14 271.30,210.96 270.66,210.91 C270.02,210.87 267.03,210.91 264.02,211.00 L 258.54 211.17 L 263.25 206.58 C265.85,204.06 268.39,202.00 268.91,202.00 C270.45,202.00 273.07,198.92 272.43,197.88 C272.10,197.35 271.03,197.17 270.06,197.48 C269.08,197.79 267.73,197.38 267.05,196.56 C265.96,195.25 265.54,195.25 263.47,196.61 C262.17,197.46 260.10,198.01 258.87,197.83 C256.84,197.53 257.00,197.24 260.56,194.88 C268.03,189.93 273.00,184.66 273.00,181.70 L 273.00 178.94 L 270.01 181.15 C264.90,184.93 265.56,182.41 271.21,176.57 C277.51,170.08 280.59,169.40 284.02,173.75 C285.68,175.87 286.04,177.32 285.59,180.13 C285.05,183.56 285.39,184.16 291.68,190.57 C298.10,197.12 298.26,197.40 296.09,198.37 C294.49,199.09 293.27,199.02 291.88,198.16 C290.31,197.18 289.53,197.22 287.92,198.35 C285.96,199.71 286.02,199.84 289.71,202.63 C291.80,204.21 294.41,206.00 295.50,206.61 C298.00,207.99 298.98,211.61 296.60,210.65 C295.72,210.29 294.26,209.70 293.35,209.34 C291.98,208.78 291.81,209.12 292.37,211.34 C293.11,214.27 291.94,214.84 290.00,212.50 C288.57,210.77 284.43,210.49 283.46,212.06 C283.05,212.73 282.32,212.45 281.49,211.31 C279.17,208.15 278.82,210.61 281.02,214.54 L 283.14 218.31 L 280.74 220.71 C278.83,222.62 278.13,222.85 277.33,221.81 ZM 188.50 234.41 C187.40,234.14 185.53,233.72 184.35,233.47 C182.20,233.01 173.79,226.56 173.17,224.89 C172.61,223.40 175.49,223.89 180.61,226.15 C184.29,227.78 187.40,228.29 193.48,228.27 C205.00,228.22 211.29,225.60 219.44,217.45 C228.75,208.14 230.63,203.59 233.24,184.02 C235.68,165.74 236.45,165.42 239.03,181.65 C242.24,201.84 232.22,222.68 215.34,230.94 C209.39,233.85 207.33,234.33 199.50,234.59 C194.55,234.76 189.60,234.67 188.50,234.41 ZM 174.50 214.89 C171.63,213.37 168.96,211.24 166.85,209.01 C167.29,209.38 167.75,209.71 168.24,210.00 C170.03,211.10 171.74,211.99 172.04,212.00 C173.06,212.00 172.90,207.59 171.84,206.31 C171.50,205.90 171.13,204.59 170.81,202.88 C171.33,204.73 172.30,205.71 174.54,207.59 C176.68,209.39 179.86,211.13 181.62,211.46 C190.62,213.15 201.22,207.35 206.24,198.00 C209.08,192.70 209.17,192.12 208.74,182.00 C208.22,169.76 207.06,166.65 199.32,156.84 C197.27,154.25 195.22,152.00 193.05,150.03 C194.16,150.92 195.26,151.86 196.38,152.85 C200.30,156.34 203.85,159.81 204.28,160.56 C204.92,161.69 205.41,161.63 207.03,160.24 C208.09,159.34 208.76,158.24 208.94,157.38 C209.87,158.52 210.98,159.79 212.25,161.14 C213.76,162.75 215.00,164.86 215.00,165.83 C215.00,166.81 215.56,168.16 216.25,168.85 C217.10,169.70 217.49,173.65 217.48,181.30 C217.47,191.43 217.20,193.07 214.68,198.50 C213.15,201.80 210.52,205.92 208.84,207.66 C201.05,215.71 183.14,219.48 174.50,214.89 ZM 247.99 136.07 C237.33,132.82 229.00,122.29 229.00,112.05 C229.00,109.87 229.68,107.46 230.54,106.61 C231.02,106.12 231.46,105.60 231.73,105.19 C231.67,106.72 232.16,108.00 233.12,108.00 C233.60,108.00 234.00,107.61 234.00,107.14 C234.00,106.66 235.12,106.49 236.50,106.76 C238.20,107.08 239.00,107.89 239.00,109.28 C239.00,112.61 240.41,110.22 241.62,104.86 C242.57,100.63 242.52,99.97 241.30,100.44 C240.50,100.74 239.22,100.37 238.45,99.60 C236.86,98.00 237.89,96.74 241.75,95.56 C244.14,94.82 244.89,92.00 242.70,92.00 C242.00,92.00 240.08,93.55 238.03,95.60 C242.80,90.47 243.67,90.00 247.41,90.00 C251.21,90.00 254.00,91.30 254.00,93.08 C254.00,93.45 252.65,94.32 251.00,95.00 C249.34,95.69 246.64,97.78 245.00,99.66 C242.41,102.60 242.00,103.86 242.00,108.78 C242.00,115.94 244.25,120.57 249.50,124.25 C253.00,126.71 254.15,126.99 258.68,126.53 C263.24,126.06 263.94,126.24 264.50,128.00 C266.55,134.46 257.41,138.93 247.99,136.07 ZM 174.00 251.37 C166.04,249.84 158.11,244.15 151.84,235.99 C152.24,236.46 152.64,236.94 153.07,237.43 C156.54,241.38 158.71,242.19 156.93,238.86 C155.86,236.86 155.96,236.77 158.64,237.44 L 161.50 238.15 L 158.80 235.33 C157.74,234.21 155.82,231.15 153.95,227.68 C158.42,234.77 164.86,240.56 172.63,244.11 C179.23,247.13 193.88,249.53 198.73,248.40 C201.37,247.78 201.42,247.84 199.79,249.55 C198.39,251.03 196.16,251.39 187.29,251.60 C181.36,251.73 175.38,251.63 174.00,251.37 ZM 255.63 288.29 C254.47,287.14 255.05,280.52 256.46,278.65 C257.23,277.64 257.62,276.17 257.32,275.40 C257.03,274.63 257.28,274.00 257.89,274.00 C259.53,274.00 259.24,269.44 257.50,268.00 C255.55,266.38 255.61,265.76 257.97,263.03 C261.67,258.77 264.42,262.20 265.64,272.62 C266.29,278.10 266.28,278.11 263.79,277.48 C260.99,276.78 257.99,279.03 258.02,281.82 C258.02,282.84 258.32,283.08 258.77,282.44 C259.42,281.49 264.00,280.91 264.00,281.78 C264.00,284.37 257.08,289.75 255.63,288.29 ZM 234.59 276.53 C232.66,272.95 230.81,272.54 231.68,275.89 C232.39,278.59 230.21,279.50 227.94,277.44 C225.74,275.45 225.46,272.28 227.16,268.55 C228.59,265.40 229.79,265.31 230.97,268.25 L 231.87 270.50 L 231.94 268.30 C231.97,267.09 231.50,265.00 230.90,263.67 C230.08,261.89 230.10,260.69 230.95,259.10 C232.49,256.22 234.00,257.35 234.00,261.37 C234.00,263.16 234.66,265.49 235.47,266.56 C236.28,267.63 236.95,269.87 236.97,271.55 C236.99,273.23 237.51,275.11 238.13,275.73 C239.31,276.91 238.67,280.00 237.26,280.00 C236.82,280.00 235.61,278.44 234.59,276.53 ZM 132.38 240.71 C128.41,237.81 125.31,234.91 122.64,231.49 C123.60,232.52 124.48,233.10 125.29,233.23 C126.51,233.42 127.65,233.49 127.83,233.38 C128.01,233.27 126.45,229.65 124.36,225.34 C124.13,224.87 123.92,224.42 123.72,224.00 C123.88,224.33 124.04,224.68 124.22,225.05 C127.78,232.38 133.38,239.22 139.50,243.69 C141.27,244.99 141.89,245.89 141.00,245.90 C140.18,245.91 136.29,243.57 132.38,240.71 ZM 248.45 296.71 C248.38,290.04 248.04,278.09 247.57,267.06 L 247.03 254.61 L 250.68 251.27 C251.99,250.08 252.83,249.11 253.21,248.35 C252.77,250.28 251.31,252.99 250.19,253.22 C249.05,253.45 248.77,257.90 248.65,277.75 C248.60,285.40 248.53,292.26 248.45,296.71 ZM 224.67 324.55 C221.90,322.45 222.84,318.58 226.22,318.19 C228.42,317.93 229.05,318.36 229.57,320.43 C230.82,325.41 228.44,327.41 224.67,324.55 ZM 239.61 296.42 C239.27,295.55 239.00,293.93 239.00,292.82 C239.00,291.65 238.16,290.59 237.00,290.29 C235.90,290.00 235.00,289.39 235.00,288.92 C235.00,288.04 238.96,285.59 239.45,286.17 C240.88,287.86 242.00,291.50 242.00,294.43 C242.00,298.11 240.68,299.21 239.61,296.42 ZM 282.66 151.18 C280.65,148.96 281.35,146.34 284.19,145.44 C286.88,144.59 288.23,146.14 287.83,149.62 C287.43,153.07 285.03,153.80 282.66,151.18 ZM 230.10 285.31 C228.69,282.23 228.71,282.00 230.42,282.00 C231.20,282.00 232.04,281.44 232.29,280.75 C233.02,278.77 234.82,281.09 235.18,284.48 C235.44,286.94 235.12,287.49 233.35,287.59 C231.97,287.67 230.80,286.85 230.10,285.31 ZM 250.14 296.85 C249.02,295.06 249.09,294.24 250.64,291.37 C252.42,288.07 255.05,286.77 254.94,289.25 C254.91,289.94 254.12,292.40 253.17,294.73 C251.52,298.78 251.40,298.87 250.14,296.85 ZM 286.06 250.06 C283.36,247.36 283.82,245.60 287.33,245.18 C289.55,244.92 290.00,245.26 289.98,247.18 C289.98,248.46 289.58,250.12 289.10,250.87 C288.40,251.97 287.81,251.81 286.06,250.06 ZM 180.92 350.80 C180.84,349.82 180.22,349.03 179.08,348.73 C177.88,348.42 177.03,347.17 176.83,345.43 L 176.50 342.64 L 172.66 346.27 C171.25,347.61 170.15,348.99 169.67,349.93 C169.90,349.10 170.75,348.12 172.15,346.74 C174.01,344.89 175.30,342.70 175.13,341.64 C174.94,340.46 175.32,339.94 176.17,340.22 C176.90,340.46 177.64,341.82 177.81,343.25 C177.98,344.68 178.77,346.39 179.56,347.05 C180.60,347.92 181.05,349.36 180.92,350.80 ZM 235.76 276.25 C236.61,277.21 237.56,278.00 237.85,278.00 C238.15,278.00 237.86,277.46 237.20,276.80 C236.54,276.14 235.99,274.45 235.99,273.05 C235.97,269.79 234.96,266.00 234.11,266.00 C232.85,266.00 234.22,274.51 235.76,276.25 ZM 252.40 261.50 C253.42,257.36 255.00,255.95 255.00,259.18 C255.00,260.60 254.25,262.37 253.33,263.13 C251.83,264.37 251.74,264.22 252.40,261.50 ZM 117.58 266.39 C117.03,266.20 117.00,267.02 117.00,269.39 C117.00,271.83 116.57,272.99 115.75,272.82 C114.85,272.62 113.85,273.01 112.95,273.76 C112.98,273.64 113.00,273.51 113.00,273.38 C113.00,272.61 113.90,271.21 115.00,270.27 C116.10,269.33 117.00,267.91 117.00,267.12 C117.00,266.43 117.14,266.18 117.58,266.39 ZM 228.00 270.56 C228.00,272.68 228.40,273.87 229.00,273.50 C229.55,273.16 230.00,271.56 230.00,269.94 C230.00,268.32 229.55,267.00 229.00,267.00 C228.45,267.00 228.00,268.60 228.00,270.56 ZM 231.51 263.02 C232.47,266.04 233.00,265.39 232.97,261.25 C232.94,258.19 232.75,257.83 231.91,259.27 C231.34,260.24 231.16,261.93 231.51,263.02 ZM 111.00 300.40 C111.00,299.66 111.79,298.75 112.81,298.28 C111.63,298.83 111.00,299.93 111.00,301.47 C111.00,303.10 110.44,304.00 109.43,304.00 C108.72,304.00 107.67,304.45 106.86,305.07 C106.95,304.86 107.00,304.66 107.00,304.46 C107.00,303.73 107.90,302.85 109.00,302.50 C110.10,302.15 111.00,301.21 111.00,300.40 ZM 250.33 92.47 C250.33,93.31 250.97,94.00 251.75,94.00 C252.53,94.00 252.99,93.47 252.77,92.81 C252.17,91.00 250.33,90.74 250.33,92.47 ZM 237.68 58.53 C226.24,52.64 213.63,48.15 201.35,45.38 C214.22,48.19 226.19,52.49 237.68,58.53 ZM 116.00 266.81 C116.00,267.26 114.65,268.92 113.00,270.50 C110.06,273.32 109.01,272.41 110.84,269.32 C108.98,272.46 110.12,273.31 113.00,270.16 C114.50,268.52 115.76,266.98 115.97,266.54 C115.99,266.62 116.00,266.71 116.00,266.81 ZM 206.00 152.68 C204.89,150.40 202.40,147.49 199.42,144.71 C203.12,147.97 206.00,151.20 206.00,152.68 ZM 172.65 450.03 C171.01,448.20 168.72,445.57 166.32,442.72 C162.05,437.65 157.78,432.60 156.85,431.50 C157.78,432.60 162.14,437.70 166.52,442.82 C168.74,445.42 170.93,447.99 172.65,450.03 ZM 149.38 218.02 C147.79,214.03 147.42,211.45 147.17,206.17 C147.36,210.25 148.12,214.24 149.38,218.02 ZM 253.32 247.10 C252.85,246.32 251.00,246.18 247.75,246.62 C247.73,246.62 247.70,246.63 247.68,246.63 C249.92,246.17 252.22,246.02 253.01,246.51 C253.18,246.61 253.28,246.82 253.32,247.10 ZM 111.54 275.35 C110.62,276.69 110.00,278.39 110.00,280.02 C110.00,280.57 110.02,281.07 110.07,281.54 C109.79,278.94 110.30,275.82 111.50,275.36 C111.51,275.36 111.53,275.35 111.54,275.35 ZM 161.33 137.32 C166.68,137.95 171.75,138.78 174.00,139.54 C174.71,139.78 175.41,140.02 176.10,140.28 C175.48,140.07 174.85,139.85 174.21,139.65 C171.67,138.82 166.61,137.97 161.33,137.32 ZM 162.49 202.39 C161.99,200.84 162.06,199.54 162.87,198.73 C162.93,198.67 162.98,198.62 163.03,198.55 C162.95,198.70 162.87,198.83 162.79,198.96 C162.24,199.85 162.17,201.06 162.49,202.39 ZM 113.24 206.26 C112.77,198.37 113.68,189.97 116.01,185.00 C113.71,189.89 112.80,198.38 113.24,206.26 ZM 207.79 155.92 C207.36,155.68 206.87,154.95 206.54,154.06 C206.84,154.58 207.26,155.21 207.79,155.92 ZM 117.30 285.08 C114.81,286.02 113.39,286.20 112.21,285.57 C113.39,286.10 115.07,285.92 117.30,285.08 ZM 233.18 101.20 C233.03,101.41 232.89,101.62 232.76,101.81 C232.43,102.32 232.17,102.90 232.00,103.49 C232.00,103.34 232.00,103.19 232.00,103.06 C232.00,102.84 232.44,102.16 233.18,101.20 ZM 97.21 336.31 C92.23,331.49 88.81,328.27 86.86,326.58 C88.78,328.21 92.22,331.45 97.21,336.31 ZM 106.46 343.88 C106.20,343.69 105.96,343.52 105.74,343.37 C104.95,342.83 104.10,342.22 103.28,341.61 C103.66,341.88 104.03,342.13 104.37,342.35 C104.87,342.67 105.60,343.21 106.46,343.88 ZM 105.22 306.47 C104.66,306.84 104.20,306.99 103.84,306.90 C104.16,306.86 104.61,306.70 105.22,306.47 ZM 173.81 353.92 C172.21,353.09 171.08,352.44 170.40,351.82 C171.23,352.45 172.51,353.25 173.81,353.92 ZM 143.24 220.50 C142.99,219.85 142.75,219.18 142.52,218.51 C141.25,214.82 140.58,212.47 140.27,209.96 C140.58,212.46 141.26,214.81 142.54,218.51 C142.77,219.20 143.01,219.86 143.24,220.50 ZM 243.92 247.77 C243.31,248.08 242.84,248.44 242.52,248.80 L 242.52 248.80 C242.66,248.46 243.17,248.10 243.92,247.77 ZM 170.08 196.60 C169.83,193.95 169.55,192.01 169.41,192.00 L 169.43 192.00 C169.58,192.00 169.85,193.96 170.08,196.60 ZM 114.29 266.10 C113.34,266.48 112.22,267.27 111.56,268.22 C112.29,267.17 113.38,266.41 114.29,266.10 ZM 166.47 193.21 C167.42,192.57 168.47,192.08 169.24,192.01 C168.52,192.08 167.45,192.58 166.47,193.21 ZM 117.78 223.82 C117.29,222.87 116.80,221.87 116.32,220.84 C116.24,220.66 116.15,220.47 116.07,220.29 C116.11,220.36 116.14,220.43 116.17,220.50 C116.73,221.69 117.27,222.80 117.78,223.82 ZM 257.55 55.91 C256.13,55.05 254.67,54.16 253.33,53.35 C234.03,41.64 216.03,35.04 193.76,31.53 C216.03,35.04 234.00,41.62 253.34,53.35 C254.68,54.17 256.14,55.05 257.55,55.91 ZM 246.48 299.62 C247.28,300.83 248.05,301.84 248.28,301.98 C248.28,301.99 248.28,302.00 248.27,302.00 C248.15,302.00 247.34,300.93 246.48,299.62 ZM 121.04 216.91 C120.58,214.52 120.55,211.72 120.53,206.50 C120.55,211.71 120.59,214.53 121.04,216.91 ZM 110.56 283.75 C110.70,284.08 110.86,284.37 111.04,284.62 C110.86,284.38 110.70,284.09 110.56,283.75 Z" fill="rgb(79,136,191)"/>
<path d="M 175.75 469.61 C174.87,468.72 173.76,468.00 173.28,468.00 C172.81,468.00 170.71,465.70 168.62,462.90 C166.52,460.09 161.59,454.15 157.65,449.70 C153.72,445.25 146.90,436.96 142.50,431.29 C138.10,425.61 127.53,412.11 119.00,401.28 C110.47,390.45 102.12,379.54 100.43,377.04 C98.75,374.54 95.92,370.48 94.15,368.00 C92.37,365.52 89.71,361.70 88.22,359.50 C86.74,357.30 85.26,355.27 84.94,355.00 C83.62,353.87 67.75,329.53 59.70,316.29 C47.63,296.44 29.04,259.32 26.30,249.60 C17.35,217.84 16.62,213.18 16.55,187.50 C16.48,158.76 17.74,152.46 28.99,125.16 C34.35,112.14 34.39,112.08 42.62,99.49 C52.83,83.90 70.31,66.34 86.06,55.88 C116.62,35.58 158.85,26.03 193.76,31.53 C216.03,35.04 234.03,41.64 253.33,53.35 C254.66,54.16 256.13,55.05 257.55,55.91 L 257.55 55.91 C260.10,57.45 262.48,58.89 263.74,59.66 C267.09,61.69 272.08,66.02 277.46,71.30 C285.45,79.28 292.52,87.88 288.82,86.50 C288.09,86.23 286.15,86.39 284.50,86.85 C282.13,87.52 281.56,88.19 281.77,90.04 C281.92,91.32 281.75,92.08 281.39,91.72 C276.18,86.52 271.00,81.77 265.79,77.46 C257.81,70.33 249.01,64.42 238.32,58.86 C238.11,58.75 237.90,58.64 237.68,58.53 C226.19,52.49 214.22,48.19 201.35,45.38 C187.84,42.33 174.72,41.35 164.00,42.87 C139.46,46.37 132.93,47.81 124.35,51.61 C122.62,52.37 120.57,53.00 119.79,53.00 C117.51,53.00 94.06,66.83 87.00,72.33 C77.33,79.88 73.67,83.47 65.25,93.71 C55.32,105.78 46.17,121.51 40.38,136.50 C37.83,143.10 35.38,149.40 34.94,150.50 C33.73,153.47 31.01,167.39 29.85,176.50 C27.44,195.41 31.44,224.94 38.92,243.59 C40.49,247.49 42.09,252.21 42.49,254.09 C43.22,257.55 43.82,259.15 48.09,269.00 C54.63,284.10 65.30,299.02 83.08,317.75 C92.34,327.70 103.53,338.77 117.00,351.40 C129.62,363.22 126.60,361.70 112.93,349.35 C111.79,348.31 110.54,347.24 109.35,346.23 C108.31,345.33 107.31,344.51 106.46,343.88 C105.60,343.21 104.87,342.67 104.37,342.35 C104.03,342.13 103.66,341.88 103.28,341.61 C101.70,340.43 100.22,339.23 99.47,338.50 C98.69,337.74 97.93,337.01 97.21,336.31 C92.22,331.45 88.78,328.21 86.86,326.58 C83.71,323.84 84.41,325.10 88.53,330.04 C90.48,332.36 91.76,334.54 91.40,334.88 C91.03,335.22 90.52,334.92 90.27,334.21 C89.89,333.15 89.51,333.15 88.21,334.21 C87.22,335.01 86.88,335.06 87.31,334.34 C87.70,333.69 87.62,333.02 87.13,332.84 C86.08,332.43 71.91,313.22 67.00,305.53 C65.07,302.52 63.36,300.46 63.19,300.96 C63.01,301.47 63.51,302.92 64.30,304.19 C77.27,325.24 85.01,337.38 87.92,341.23 C89.89,343.83 93.53,348.91 96.00,352.52 C100.17,358.59 111.05,373.66 119.80,385.49 C124.02,391.19 149.84,423.26 156.85,431.50 C157.78,432.60 162.05,437.65 166.32,442.72 C168.72,445.57 171.01,448.20 172.65,450.03 C174.34,452.03 175.59,453.52 176.00,454.04 C176.52,454.69 176.92,455.16 177.23,455.46 C178.67,458.20 180.00,462.09 180.00,464.27 C180.00,466.11 179.41,468.43 178.68,469.42 C177.47,471.08 177.23,471.09 175.75,469.61 ZM 103.00 304.93 C103.00,301.31 101.11,299.00 98.14,299.00 C95.97,299.00 94.09,297.57 89.57,292.46 C84.32,286.51 83.85,285.61 84.43,282.53 C84.79,280.59 84.62,278.89 84.03,278.52 C82.26,277.43 82.91,267.79 85.08,263.00 C86.19,260.52 88.75,256.81 90.76,254.75 C92.83,252.62 93.74,251.70 95.66,251.30 L 102.00 251.97 C108.42,252.64 113.23,254.51 117.88,258.14 C121.21,260.73 122.44,260.46 120.30,257.62 C119.24,256.22 117.98,255.05 116.50,254.11 C118.63,255.38 120.65,257.08 122.83,259.33 C127.56,264.21 129.25,272.97 127.01,281.03 C125.88,285.08 116.18,297.02 113.08,298.17 C112.99,298.20 112.89,298.24 112.80,298.28 L 112.81 298.28 C111.79,298.75 111.00,299.66 111.00,300.40 C111.00,301.21 110.10,302.15 109.00,302.50 C107.90,302.85 107.00,303.73 107.00,304.46 C107.00,304.66 106.95,304.86 106.86,305.07 C106.68,305.21 106.51,305.35 106.36,305.50 C105.94,305.91 105.56,306.24 105.22,306.47 C104.61,306.70 104.16,306.86 103.84,306.90 C103.30,306.77 103.00,306.11 103.00,304.93 ZM 58.26 220.09 C52.87,216.69 49.33,211.89 48.48,206.87 C47.78,202.75 49.04,200.00 51.62,200.00 C52.55,200.00 53.00,201.25 53.00,203.85 C53.00,207.68 55.27,211.00 57.88,211.00 C58.55,211.00 59.78,212.61 60.60,214.59 C62.02,217.99 62.22,218.10 64.30,216.72 C67.76,214.42 67.44,212.43 62.91,208.03 C59.07,204.31 58.80,203.72 59.85,201.43 C60.48,200.04 61.00,197.35 61.00,195.44 C61.00,193.53 61.56,191.05 62.25,189.92 C63.33,188.15 63.18,187.61 61.14,185.93 C59.84,184.87 58.12,184.00 57.32,184.00 C54.41,184.00 56.43,180.51 59.51,180.21 C61.34,180.03 63.51,178.76 65.11,176.91 C69.46,171.90 72.42,171.76 80.50,176.16 C84.41,178.29 88.91,179.98 90.69,179.99 C92.45,179.99 94.16,180.45 94.51,181.01 C95.48,182.58 94.03,186.00 92.40,186.00 C91.45,186.00 91.04,186.79 91.25,188.25 C91.68,191.26 94.30,197.00 95.24,197.00 C96.50,197.00 96.09,201.92 94.60,204.80 C92.91,208.08 85.74,214.00 83.47,214.00 C82.56,214.00 81.32,212.66 80.69,211.00 C80.07,209.35 79.03,208.00 78.38,208.00 C76.30,208.00 70.80,215.12 71.32,217.13 C71.88,219.25 67.79,222.59 64.50,222.71 C63.40,222.75 60.59,221.57 58.26,220.09 ZM 117.78 223.82 C117.27,222.80 116.73,221.69 116.17,220.50 C116.14,220.43 116.11,220.36 116.07,220.29 C114.51,216.65 113.56,211.57 113.24,206.26 C112.80,198.38 113.71,189.89 116.01,185.00 C123.46,169.15 131.47,160.26 143.59,154.41 C151.26,150.70 151.84,150.58 162.50,150.54 C172.43,150.50 174.15,150.78 180.14,153.35 C184.54,155.25 187.14,157.02 187.88,158.64 C188.35,159.66 188.52,160.41 188.34,160.90 C187.93,159.67 184.63,157.11 183.78,157.64 C183.37,157.89 183.59,158.97 184.26,160.05 C184.62,160.62 185.01,161.07 185.42,161.39 C183.92,161.10 181.80,160.44 178.98,159.43 C172.95,157.25 170.63,156.89 166.15,157.41 C149.81,159.33 132.52,169.37 126.92,180.20 C121.65,190.39 120.50,195.13 120.53,206.50 C120.53,206.96 120.53,207.40 120.54,207.82 C120.56,212.21 120.62,214.73 121.04,216.91 L 121.04 216.91 C121.47,219.12 122.26,220.96 123.72,224.00 L 123.72 224.01 C123.92,224.43 124.13,224.87 124.36,225.34 C126.45,229.65 128.01,233.27 127.83,233.38 C127.65,233.49 126.51,233.42 125.29,233.23 C124.48,233.10 123.60,232.52 122.64,231.49 C120.87,229.21 119.29,226.70 117.78,223.82 ZM 165.50 115.34 C155.63,110.28 151.00,103.62 151.00,94.45 C151.00,88.98 151.01,88.96 153.75,89.59 C157.03,90.35 162.21,93.61 166.93,97.89 C168.82,99.60 170.79,101.00 171.31,101.00 C171.82,101.00 171.98,102.35 171.65,104.00 C170.94,107.56 171.79,107.77 174.95,104.84 C177.05,102.87 177.12,102.56 175.63,101.48 C173.48,99.90 173.57,99.00 175.88,99.00 C176.99,99.00 178.01,99.92 178.36,101.25 C178.91,103.34 179.29,103.11 183.59,98.21 C188.73,92.34 196.55,86.00 198.64,86.00 C198.69,86.00 198.73,86.01 198.78,86.02 C198.02,86.12 197.00,86.78 196.28,87.93 C195.34,89.44 195.34,89.97 196.29,90.35 C198.23,91.14 199.00,91.06 199.00,90.08 C199.00,89.59 199.26,88.52 199.58,87.66 C200.37,91.24 200.13,99.60 198.78,102.70 C195.34,110.63 187.71,117.00 181.67,117.00 C178.55,117.00 177.78,116.56 176.93,114.31 L 175.91 111.62 L 173.97 114.81 C172.90,116.57 171.69,117.98 171.26,117.95 C170.84,117.93 168.25,116.75 165.50,115.34 ZM 104.27 136.76 C103.72,136.07 102.99,134.38 102.63,133.00 C102.28,131.62 101.30,129.61 100.47,128.52 C98.56,126.04 96.53,127.10 93.04,132.40 C90.92,135.61 90.47,135.88 89.86,134.32 C88.54,130.96 88.98,127.32 90.94,125.56 C92.00,124.59 93.32,124.08 93.87,124.42 C95.95,125.70 95.76,123.26 93.43,118.65 C92.09,116.02 91.00,112.77 91.00,111.42 C91.00,110.08 90.05,106.95 88.89,104.48 C87.18,100.84 87.01,99.70 88.01,98.49 C90.47,95.52 94.61,97.46 96.38,102.40 C96.98,104.11 97.18,104.14 98.28,102.73 C99.29,101.42 100.45,101.31 105.00,102.05 C111.70,103.14 114.00,105.52 114.00,111.36 C113.99,115.52 110.96,122.00 109.01,122.00 C108.46,122.00 108.00,122.45 108.00,123.00 C108.00,123.55 108.68,124.00 109.50,124.00 C110.32,124.00 111.00,124.84 111.00,125.88 C111.00,126.91 110.32,128.32 109.50,129.00 C108.68,129.68 108.00,131.48 108.00,133.00 C108.00,136.37 105.75,138.64 104.27,136.76 ZM 143.24 220.50 C143.01,219.86 142.77,219.20 142.54,218.51 C141.26,214.81 140.58,212.46 140.27,209.96 C140.01,207.76 140.04,205.44 140.21,202.01 C140.89,188.56 146.22,180.37 158.00,174.65 C163.40,172.03 165.60,171.52 171.00,171.62 C174.57,171.69 178.62,172.26 180.00,172.89 C186.67,175.94 190.89,179.89 191.45,183.28 C191.27,182.59 190.90,181.80 190.30,180.78 C187.90,176.66 182.86,173.97 176.60,173.45 C173.65,173.21 172.44,173.34 173.72,173.76 C176.97,174.84 175.18,176.78 170.49,177.26 C166.57,177.66 166.58,177.67 171.29,177.83 C172.45,177.87 173.62,178.02 174.77,178.27 C173.85,178.09 172.95,178.00 172.08,178.00 C166.15,178.00 157.65,181.57 153.57,185.77 C148.29,191.20 146.71,196.23 147.17,206.17 C147.36,210.25 148.12,214.24 149.38,218.02 C150.52,221.43 152.06,224.67 153.95,227.68 C155.82,231.15 157.74,234.21 158.80,235.33 L 161.50 238.15 L 158.64 237.44 C155.96,236.77 155.86,236.86 156.93,238.86 C158.71,242.19 156.54,241.38 153.07,237.43 C152.64,236.94 152.24,236.46 151.84,235.99 C148.38,231.49 145.43,226.23 143.24,220.50 ZM 206.00 152.68 C206.00,152.98 206.19,153.45 206.54,154.06 C206.87,154.95 207.36,155.68 207.79,155.92 C208.13,156.37 208.52,156.87 208.94,157.38 C208.76,158.24 208.09,159.34 207.03,160.24 C205.41,161.63 204.92,161.69 204.28,160.56 C203.85,159.81 200.30,156.34 196.38,152.85 C195.26,151.86 194.16,150.92 193.05,150.03 C188.31,145.72 183.02,142.72 176.10,140.28 C175.41,140.02 174.71,139.78 174.00,139.54 C171.75,138.78 166.68,137.95 161.33,137.32 L 161.33 137.32 C154.06,136.43 146.38,135.94 144.25,136.47 C142.51,136.91 141.93,136.72 142.23,135.80 C142.89,133.82 154.67,131.07 162.50,131.07 C168.76,131.06 173.04,131.94 186.19,135.94 C189.44,136.93 195.01,140.83 199.42,144.71 C202.40,147.49 204.89,150.40 206.00,152.68 ZM 169.98 93.80 C166.65,89.37 166.68,80.78 170.06,72.41 C172.67,65.94 174.87,62.00 175.88,62.00 C176.62,62.00 179.98,69.26 182.51,76.35 C184.91,83.07 184.10,89.37 180.36,93.06 C175.83,97.53 172.93,97.74 169.98,93.80 ZM 94.00 285.00 C94.00,284.45 94.83,284.00 95.84,284.00 C97.91,284.00 100.00,280.18 100.00,276.41 C100.00,272.27 93.07,267.10 90.04,268.98 C88.04,270.21 87.61,280.76 89.45,283.57 C91.04,285.98 94.00,286.92 94.00,285.00 ZM 117.30 285.08 C121.88,283.34 122.98,271.10 118.90,267.41 C118.28,266.85 117.86,266.49 117.58,266.39 C117.14,266.18 117.00,266.43 117.00,267.12 C117.00,267.91 116.10,269.33 115.00,270.27 C113.90,271.21 113.00,272.61 113.00,273.38 C113.00,273.51 112.98,273.64 112.95,273.76 C112.44,274.19 111.96,274.73 111.54,275.35 C111.53,275.35 111.51,275.36 111.50,275.36 C110.30,275.82 109.79,278.94 110.07,281.54 C110.15,282.41 110.32,283.15 110.56,283.75 C110.70,284.09 110.86,284.38 111.04,284.62 C111.35,285.05 111.74,285.37 112.21,285.57 C113.39,286.20 114.81,286.02 117.30,285.08 ZM 174.77 314.56 C173.18,313.73 171.79,313.53 171.46,314.07 C170.66,315.35 163.00,315.25 163.00,313.95 C163.00,311.60 166.06,307.22 168.06,306.70 C170.99,305.93 172.80,306.79 173.60,309.33 L 174.28 311.47 L 175.11 309.23 C176.18,306.33 182.00,305.96 182.00,308.80 C182.00,309.79 182.47,311.07 183.04,311.64 C183.77,312.37 183.69,313.00 182.79,313.72 C180.35,315.68 177.50,315.97 174.77,314.56 ZM 162.49 202.39 C162.17,201.06 162.24,199.85 162.79,198.96 C162.87,198.83 162.95,198.70 163.03,198.55 C163.58,197.90 164.00,196.79 164.00,195.96 C164.00,195.24 165.15,194.09 166.47,193.21 C167.45,192.58 168.52,192.08 169.24,192.01 L 169.24 192.01 C169.30,192.00 169.36,192.00 169.41,192.00 C169.55,192.01 169.83,193.95 170.08,196.59 L 170.08 196.60 C170.12,197.10 170.17,197.62 170.21,198.17 C170.36,200.32 170.50,201.75 170.81,202.88 C171.13,204.59 171.50,205.90 171.84,206.31 C172.90,207.59 173.06,212.00 172.04,212.00 C171.74,211.99 170.03,211.10 168.24,210.00 C167.75,209.71 167.29,209.38 166.85,209.01 C164.70,206.75 163.13,204.37 162.49,202.39 ZM 213.65 78.17 C210.11,74.26 212.96,69.00 218.63,69.00 C222.33,69.00 224.00,70.60 224.00,74.14 C224.00,79.17 217.02,81.88 213.65,78.17 ZM 233.18 101.20 C234.21,99.87 235.81,97.99 237.61,96.06 C237.75,95.90 237.89,95.75 238.03,95.60 C240.08,93.55 242.00,92.00 242.70,92.00 C244.89,92.00 244.14,94.82 241.75,95.56 C237.89,96.74 236.86,98.00 238.45,99.60 C239.22,100.37 240.50,100.74 241.30,100.44 C242.52,99.97 242.57,100.63 241.62,104.86 C240.41,110.22 239.00,112.61 239.00,109.28 C239.00,107.89 238.20,107.08 236.50,106.76 C235.12,106.49 234.00,106.66 234.00,107.14 C234.00,107.61 233.60,108.00 233.12,108.00 C232.16,108.00 231.67,106.72 231.73,105.19 C231.93,104.90 232.04,104.66 232.04,104.54 C232.02,104.32 232.01,103.90 232.00,103.49 C232.17,102.90 232.43,102.32 232.76,101.81 C232.89,101.62 233.03,101.41 233.18,101.20 ZM 123.75 119.28 C120.34,118.77 120.32,117.97 123.59,114.08 C126.16,111.03 129.31,110.08 130.50,112.00 C130.84,112.55 133.00,113.05 135.31,113.12 C137.61,113.18 138.71,113.44 137.75,113.69 C136.79,113.94 136.00,114.80 136.00,115.60 C136.00,116.41 134.68,117.31 132.98,117.65 C131.32,117.99 129.72,118.65 129.42,119.13 C128.87,120.01 128.61,120.02 123.75,119.28 ZM 115.78 114.75 C114.99,112.46 115.60,106.35 116.76,104.92 C122.68,97.63 123.91,96.55 125.03,97.65 C126.29,98.89 125.46,103.00 123.96,103.00 C122.64,103.00 120.00,108.51 120.00,111.25 C120.00,114.82 116.74,117.53 115.78,114.75 ZM 84.00 192.50 C84.00,191.56 84.95,191.00 86.53,191.00 C89.54,191.00 90.58,188.96 89.04,186.08 C88.20,184.51 86.96,184.00 83.96,184.00 L 80.00 184.00 L 80.00 189.00 C80.00,193.33 80.27,194.00 82.00,194.00 C83.11,194.00 84.00,193.33 84.00,192.50 ZM 132.61 77.71 C131.37,76.80 130.94,75.38 131.17,72.96 C131.48,69.76 131.78,69.48 135.22,69.19 C138.51,68.92 139.01,69.18 139.59,71.52 C141.00,77.11 136.84,80.80 132.61,77.71 ZM 88.96 203.55 C90.33,201.90 89.62,198.76 87.47,196.97 C86.31,196.01 85.48,196.11 83.45,197.44 C80.54,199.35 79.53,201.33 80.36,203.50 C81.11,205.45 87.35,205.49 88.96,203.55 ZM 102.56 97.78 C100.51,94.85 100.59,92.68 102.83,90.65 C105.37,88.36 106.31,88.57 108.26,91.87 C109.90,94.63 109.88,94.83 107.70,97.37 C104.95,100.57 104.53,100.60 102.56,97.78 ZM 80.65 118.17 C78.27,115.54 78.62,113.13 81.58,111.78 C84.35,110.52 86.53,111.31 88.38,114.24 C89.17,115.49 88.84,116.32 86.95,117.89 C83.90,120.43 82.75,120.48 80.65,118.17 ZM 72.96 189.60 C74.07,186.68 72.26,180.00 70.37,180.00 C69.65,180.00 68.57,180.93 67.96,182.07 C67.11,183.67 67.21,184.67 68.42,186.51 C69.28,187.82 69.71,189.59 69.38,190.45 C68.99,191.46 69.35,192.00 70.42,192.00 C71.32,192.00 72.46,190.92 72.96,189.60 ZM 62.98 149.47 C61.99,148.29 61.97,147.37 62.86,145.40 C64.41,142.02 69.33,142.30 69.83,145.81 C70.46,150.24 65.72,152.77 62.98,149.47 ZM 73.82 204.74 C74.18,201.59 72.36,200.44 68.50,201.41 C66.52,201.91 66.00,202.67 66.00,205.08 C66.00,207.98 66.17,208.11 69.75,207.81 C73.01,207.54 73.54,207.14 73.82,204.74 ZM 115.65 129.17 C112.89,126.11 113.54,124.00 117.25,124.03 C120.16,124.06 125.01,126.45 123.93,127.32 C122.25,128.66 118.44,131.00 117.93,131.00 C117.59,131.00 116.57,130.18 115.65,129.17 ZM 123.00 322.50 C123.00,319.42 123.31,319.00 125.53,319.00 C128.78,319.00 129.75,321.52 127.47,324.04 C126.23,325.40 125.21,326.04 124.45,325.97 C124.79,325.87 125.16,325.55 125.50,324.99 C125.85,324.44 125.42,323.28 124.56,322.42 C123.27,321.13 123.04,321.09 123.00,322.85 C123.00,322.73 123.00,322.62 123.00,322.50 ZM 65.38 246.55 C64.62,244.58 65.74,243.00 67.89,243.00 C70.63,243.00 71.17,244.16 69.35,246.17 C67.35,248.38 66.13,248.49 65.38,246.55 ZM 116.00 266.44 C116.00,265.76 115.23,265.73 114.29,266.10 C113.38,266.41 112.29,267.17 111.56,268.22 C111.28,268.61 111.04,268.98 110.84,269.32 C109.01,272.41 110.06,273.32 113.00,270.50 C114.65,268.92 116.00,267.26 116.00,266.81 C116.00,266.71 115.99,266.62 115.97,266.54 C115.99,266.49 116.00,266.46 116.00,266.44 ZM 78.02 179.53 C76.08,175.90 75.39,176.40 75.84,181.10 C76.19,184.83 76.37,185.06 77.80,183.63 C79.15,182.28 79.18,181.71 78.02,179.53 ZM 163.67 459.85 C158.52,453.51 151.52,445.10 147.12,440.00 C142.13,434.23 138.04,429.15 138.02,428.71 C138.01,428.28 134.29,423.39 129.75,417.83 C123.72,410.46 118.10,403.39 113.32,397.20 C118.15,403.45 123.84,410.60 129.99,418.12 C137.89,427.78 144.76,436.29 163.67,459.85 ZM 168.12 198.33 C168.21,200.01 168.34,200.10 168.69,198.76 C168.94,197.81 169.00,196.13 168.82,195.04 C168.57,193.49 168.17,193.28 167.00,194.10 C165.87,194.89 165.81,195.28 166.75,195.66 C167.44,195.94 168.05,197.14 168.12,198.33 ZM 103.77 292.19 C103.99,291.53 103.45,291.00 102.58,291.00 C101.71,291.00 101.00,291.71 101.00,292.58 C101.00,294.35 103.15,294.04 103.77,292.19 ZM 111.93 252.12 C109.38,251.40 106.42,251.07 103.00,251.14 L 95.77 251.28 C97.20,251.00 99.19,251.00 102.58,251.00 C106.26,251.00 109.26,251.32 111.93,252.12 ZM 185.83 185.06 C184.90,183.41 183.12,181.85 180.99,180.62 C183.14,181.84 184.88,183.39 185.83,185.06 Z" fill="rgb(215,182,85)"/>
<path d="M 0.00 244.00 L 0.00 0.00 L 176.00 0.00 L 352.00 0.00 L 352.00 244.00 L 352.00 488.00 L 176.00 488.00 L 0.00 488.00 L 0.00 244.00 ZM 187.41 464.25 C198.24,450.52 203.34,443.89 205.29,441.00 C206.22,439.62 209.46,435.12 212.49,431.00 C215.53,426.88 219.82,421.02 222.04,418.00 C225.84,412.82 228.87,408.77 238.57,395.90 C242.22,391.05 247.01,384.29 255.14,372.50 C256.66,370.30 260.14,365.35 262.88,361.50 C265.62,357.65 270.68,350.00 274.11,344.50 C277.55,339.00 281.54,332.70 282.98,330.50 C292.75,315.54 315.45,272.03 321.31,257.00 C324.81,248.03 329.58,233.50 330.99,227.50 C343.24,175.29 332.78,131.63 297.21,86.50 C289.12,76.23 286.45,73.54 276.50,65.58 C249.03,43.60 216.16,30.62 182.50,28.48 C173.28,27.89 153.97,29.09 141.50,31.02 C127.27,33.23 102.83,43.18 88.00,52.81 C63.20,68.92 40.45,94.59 29.08,119.31 C23.11,132.30 20.87,138.53 17.12,152.50 C15.51,158.52 13.00,180.65 13.03,188.54 C13.08,198.58 15.53,217.23 18.03,226.50 C19.22,230.90 20.61,236.30 21.14,238.50 C24.33,251.92 36.03,278.72 47.77,299.50 C60.30,321.69 73.47,342.17 89.89,365.00 C94.84,371.88 100.95,380.42 103.48,384.00 C109.09,391.93 118.75,404.37 129.75,417.83 C134.29,423.39 138.01,428.28 138.02,428.71 C138.04,429.15 142.13,434.23 147.12,440.00 C152.10,445.77 160.42,455.79 165.60,462.25 C172.82,471.25 175.57,474.00 177.37,474.00 C179.15,474.00 181.58,471.64 187.41,464.25 ZM 173.81 353.92 C171.79,352.87 169.84,351.54 169.48,350.96 C169.12,350.38 170.55,348.27 172.66,346.27 L 176.50 342.64 L 176.83 345.43 C177.03,347.17 177.88,348.42 179.08,348.73 C181.48,349.36 181.56,352.18 179.25,354.26 C177.66,355.68 177.17,355.65 173.81,353.92 ZM 150.16 328.23 C146.22,327.91 145.87,327.66 146.38,325.63 C146.69,324.40 148.35,320.94 150.08,317.94 C151.80,314.95 157.14,305.08 161.95,296.00 C169.33,282.06 173.68,273.93 174.73,272.11 C175.37,270.99 177.95,274.59 179.51,278.76 C180.48,281.37 181.83,284.17 182.52,285.00 C183.21,285.83 188.33,295.50 193.90,306.50 C202.73,323.90 203.84,326.64 202.48,327.64 C201.00,328.72 161.48,329.17 150.16,328.23 ZM 197.00 323.62 C197.00,322.86 196.32,321.68 195.50,321.00 C194.68,320.32 194.00,319.31 194.00,318.76 C194.00,317.40 175.99,281.56 175.15,281.25 C174.78,281.11 173.28,283.58 171.81,286.75 C170.34,289.91 167.39,295.65 165.23,299.50 C163.08,303.35 159.23,310.26 156.67,314.86 C154.11,319.45 152.26,323.62 152.57,324.11 C152.87,324.60 162.99,325.00 175.06,325.00 C193.03,325.00 197.00,324.75 197.00,323.62 ZM 123.00 323.43 C123.00,321.10 123.15,321.00 124.56,322.42 C125.42,323.28 125.85,324.44 125.50,324.99 C124.35,326.86 123.00,326.02 123.00,323.43 ZM 246.48 299.62 C245.23,297.71 244.91,293.95 244.87,280.87 C244.80,261.49 244.15,251.72 242.87,250.92 C240.68,249.56 243.34,247.23 247.75,246.62 C254.22,245.73 255.13,247.19 250.68,251.27 L 247.03 254.61 L 247.57 267.06 C248.28,283.51 248.68,302.00 248.33,302.00 C248.17,302.00 247.34,300.93 246.48,299.62 ZM 235.76 276.25 C234.22,274.51 232.85,266.00 234.11,266.00 C234.96,266.00 235.97,269.79 235.99,273.05 C235.99,274.45 236.54,276.14 237.20,276.80 C237.86,277.46 238.15,278.00 237.85,278.00 C237.56,278.00 236.61,277.21 235.76,276.25 ZM 228.00 270.56 C228.00,268.60 228.45,267.00 229.00,267.00 C229.55,267.00 230.00,268.32 230.00,269.94 C230.00,271.56 229.55,273.16 229.00,273.50 C228.40,273.87 228.00,272.68 228.00,270.56 ZM 231.51 263.02 C231.16,261.93 231.34,260.24 231.91,259.27 C232.75,257.83 232.94,258.19 232.97,261.25 C233.00,265.39 232.47,266.04 231.51,263.02 ZM 117.88 258.14 C113.23,254.51 108.42,252.64 102.00,251.97 L 95.50 251.28 L 103.00 251.14 C111.26,250.98 116.88,253.09 120.30,257.62 C122.44,260.46 121.21,260.73 117.88,258.14 ZM 168.12 198.33 C168.05,197.14 167.44,195.94 166.75,195.66 C165.81,195.28 165.87,194.89 167.00,194.10 C168.17,193.28 168.57,193.49 168.82,195.04 C169.00,196.13 168.94,197.81 168.69,198.76 C168.34,200.10 168.21,200.01 168.12,198.33 ZM 185.83 185.06 C183.64,181.21 177.27,178.04 171.29,177.83 C166.58,177.67 166.57,177.66 170.49,177.26 C175.18,176.78 176.97,174.84 173.72,173.76 C172.44,173.34 173.65,173.21 176.60,173.45 C182.86,173.97 187.90,176.66 190.30,180.78 C191.73,183.23 191.89,184.34 191.03,185.95 C189.50,188.80 187.79,188.50 185.83,185.06 ZM 184.26 160.05 C183.59,158.97 183.37,157.89 183.78,157.64 C184.77,157.02 189.08,160.59 188.29,161.38 C187.12,162.54 185.48,162.00 184.26,160.05 ZM 250.33 92.47 C250.33,90.74 252.17,91.00 252.77,92.81 C252.99,93.47 252.53,94.00 251.75,94.00 C250.97,94.00 250.33,93.31 250.33,92.47 ZM 196.29 90.35 C195.34,89.97 195.34,89.44 196.28,87.93 C197.74,85.58 200.48,85.30 199.61,87.58 C199.27,88.45 199.00,89.58 199.00,90.08 C199.00,91.06 198.23,91.14 196.29,90.35 Z" fill="rgb(253,254,253)"/>
</g>
</svg>